<svg id="visual" viewBox="0 0 960 540" width="960" height="540" xmlns="http://www.w3.org/2000/svg" xmlns:xlink="http://www.w3.org/1999/xlink" version="1.1"><rect x="0" y="0" width="960" height="540" fill="#001220"></rect><path d="M0 339L22.8 346.5C45.7 354 91.3 369 137 375.2C182.7 381.3 228.3 378.7 274 370.7C319.7 362.7 365.3 349.3 411.2 343.3C457 337.3 503 338.7 548.8 345.7C594.7 352.7 640.3 365.3 686 372.8C731.7 380.3 777.3 382.7 823 377.7C868.7 372.7 914.3 360.3 937.2 354.2L960 348L960 541L937.2 541C914.3 541 868.7 541 823 541C777.3 541 731.7 541 686 541C640.3 541 594.7 541 548.8 541C503 541 457 541 411.2 541C365.3 541 319.7 541 274 541C228.3 541 182.7 541 137 541C91.3 541 45.7 541 22.8 541L0 541Z" fill="#fa7268"></path><path d="M0 400L22.8 393C45.7 386 91.3 372 137 368.8C182.7 365.7 228.3 373.3 274 374.5C319.7 375.7 365.3 370.3 411.2 376.7C457 383 503 401 548.8 407.2C594.7 413.3 640.3 407.7 686 398C731.7 388.3 777.3 374.7 823 368C868.7 361.3 914.3 361.7 937.2 361.8L960 362L960 541L937.2 541C914.3 541 868.7 541 823 541C777.3 541 731.7 541 686 541C640.3 541 594.7 541 548.8 541C503 541 457 541 411.2 541C365.3 541 319.7 541 274 541C228.3 541 182.7 541 137 541C91.3 541 45.7 541 22.8 541L0 541Z" fill="#f16367"></path><path d="M0 390L22.8 389.8C45.7 389.7 91.3 389.3 137 387.7C182.7 386 228.3 383 274 392.7C319.7 402.3 365.3 424.7 411.2 428.7C457 432.7 503 418.3 548.8 415C594.7 411.7 640.3 419.3 686 417.7C731.7 416 777.3 405 823 398C868.7 391 914.3 388 937.2 386.5L960 385L960 541L937.2 541C914.3 541 868.7 541 823 541C777.3 541 731.7 541 686 541C640.3 541 594.7 541 548.8 541C503 541 457 541 411.2 541C365.3 541 319.7 541 274 541C228.3 541 182.7 541 137 541C91.3 541 45.7 541 22.8 541L0 541Z" fill="#e85467"></path><path d="M0 458L22.8 456.3C45.7 454.7 91.3 451.3 137 444.2C182.7 437 228.3 426 274 426.7C319.7 427.3 365.3 439.7 411.2 448.8C457 458 503 464 548.8 463C594.7 462 640.3 454 686 447C731.7 440 777.3 434 823 435.2C868.7 436.3 914.3 444.7 937.2 448.8L960 453L960 541L937.2 541C914.3 541 868.7 541 823 541C777.3 541 731.7 541 686 541C640.3 541 594.7 541 548.8 541C503 541 457 541 411.2 541C365.3 541 319.7 541 274 541C228.3 541 182.7 541 137 541C91.3 541 45.7 541 22.8 541L0 541Z" fill="#de4467"></path><path d="M0 460L22.8 464.3C45.7 468.7 91.3 477.3 137 479.7C182.7 482 228.3 478 274 477.2C319.7 476.3 365.3 478.7 411.2 480.2C457 481.7 503 482.3 548.8 477C594.7 471.7 640.3 460.3 686 457C731.7 453.7 777.3 458.3 823 458.8C868.7 459.3 914.3 455.7 937.2 453.8L960 452L960 541L937.2 541C914.3 541 868.7 541 823 541C777.3 541 731.7 541 686 541C640.3 541 594.7 541 548.8 541C503 541 457 541 411.2 541C365.3 541 319.7 541 274 541C228.3 541 182.7 541 137 541C91.3 541 45.7 541 22.8 541L0 541Z" fill="#d23467"></path><path d="M0 513L22.8 510.2C45.7 507.3 91.3 501.7 137 502.3C182.7 503 228.3 510 274 512.2C319.7 514.3 365.3 511.7 411.2 511.8C457 512 503 515 548.8 510.3C594.7 505.7 640.3 493.3 686 488.2C731.7 483 777.3 485 823 486.3C868.7 487.7 914.3 488.3 937.2 488.7L960 489L960 541L937.2 541C914.3 541 868.7 541 823 541C777.3 541 731.7 541 686 541C640.3 541 594.7 541 548.8 541C503 541 457 541 411.2 541C365.3 541 319.7 541 274 541C228.3 541 182.7 541 137 541C91.3 541 45.7 541 22.8 541L0 541Z" fill="#c62368"></path></svg>